<?xml version="1.0" encoding="UTF-8"?>
<svg width="1e3" height="1e3" version="1.1" viewBox="0 0 264.58 264.58" xmlns="http://www.w3.org/2000/svg" xmlns:osb="http://www.openswatchbook.org/uri/2009/osb" xmlns:xlink="http://www.w3.org/1999/xlink"><g transform="translate(0 -32.417)"><circle cx="132.29" cy="164.71" r="125.68" fill="#fff" stroke="#000" stroke-linejoin="round" stroke-width="13.229" style="paint-order:normal"/><rect id="rect4582" x="129.65" y="50.937" width="5.2917" height="18.521" style="paint-order:stroke fill markers"/><use id="use6147" transform="rotate(30 132.29 164.71)" width="100%" height="100%" xlink:href="#rect4582"/><use id="use6149" transform="rotate(30 132.29 164.71)" width="100%" height="100%" xlink:href="#use6147"/><use id="use6151" transform="rotate(30 132.29 164.71)" width="100%" height="100%" xlink:href="#use6149"/><use id="use6153" transform="rotate(30 132.29 164.71)" width="100%" height="100%" xlink:href="#use6151"/><use id="use6155" transform="rotate(30 132.29 164.71)" width="100%" height="100%" xlink:href="#use6153"/><use id="use6157" transform="rotate(30 132.29 164.71)" width="100%" height="100%" xlink:href="#use6155"/><use id="use6159" transform="rotate(30 132.29 164.71)" width="100%" height="100%" xlink:href="#use6157"/><use id="use6161" transform="rotate(30 132.29 164.71)" width="100%" height="100%" xlink:href="#use6159"/><use id="use6163" transform="rotate(30 132.29 164.71)" width="100%" height="100%" xlink:href="#use6161"/><use id="use6165" transform="rotate(30 132.29 164.71)" width="100%" height="100%" xlink:href="#use6163"/><use transform="rotate(30 132.29 164.71)" width="100%" height="100%" xlink:href="#use6165"/><rect id="use6169" transform="rotate(6)" x="147.45" y="36.207" width="2.6458" height="9.2604" fill="#9b9b9b" style="paint-order:stroke fill markers"/><use id="use6171" transform="rotate(6 132.29 164.62)" width="100%" height="100%" xlink:href="#use6169"/><use id="use6173" transform="rotate(6 132.29 164.62)" width="100%" height="100%" xlink:href="#use6171"/><use id="use6175" transform="rotate(6 132.29 164.62)" width="100%" height="100%" xlink:href="#use6173"/><use id="use6177" transform="rotate(12 132.29 164.62)" width="100%" height="100%" xlink:href="#use6175"/><use id="use6179" transform="rotate(6 132.29 164.62)" width="100%" height="100%" xlink:href="#use6177"/><use id="use6181" transform="rotate(6 132.29 164.62)" width="100%" height="100%" xlink:href="#use6179"/><use id="use6183" transform="rotate(6 132.29 164.62)" width="100%" height="100%" xlink:href="#use6181"/><use id="use6185" transform="rotate(12 132.29 164.62)" width="100%" height="100%" xlink:href="#use6183"/><use id="use6187" transform="rotate(6 132.29 164.62)" width="100%" height="100%" xlink:href="#use6185"/><use id="use6189" transform="rotate(6 132.29 164.62)" width="100%" height="100%" xlink:href="#use6187"/><use id="use6191" transform="rotate(6 132.29 164.62)" width="100%" height="100%" xlink:href="#use6189"/><use id="use6193" transform="rotate(12 132.29 164.62)" width="100%" height="100%" xlink:href="#use6191"/><use id="use6195" transform="rotate(6 132.29 164.62)" width="100%" height="100%" xlink:href="#use6193"/><use id="use6197" transform="rotate(6 132.29 164.62)" width="100%" height="100%" xlink:href="#use6195"/><use id="use6199" transform="rotate(6 132.29 164.62)" width="100%" height="100%" xlink:href="#use6197"/><use id="use6201" transform="rotate(12 132.29 164.62)" width="100%" height="100%" xlink:href="#use6199"/><use id="use6203" transform="rotate(6 132.29 164.62)" width="100%" height="100%" xlink:href="#use6201"/><use id="use6205" transform="rotate(6 132.29 164.62)" width="100%" height="100%" xlink:href="#use6203"/><use id="use6207" transform="rotate(6 132.29 164.62)" width="100%" height="100%" xlink:href="#use6205"/><use id="use6209" transform="rotate(12 132.29 164.62)" width="100%" height="100%" xlink:href="#use6207"/><use id="use6211" transform="rotate(6 132.29 164.62)" width="100%" height="100%" xlink:href="#use6209"/><use id="use6213" transform="rotate(6 132.29 164.62)" width="100%" height="100%" xlink:href="#use6211"/><use id="use6215" transform="rotate(6 132.29 164.62)" width="100%" height="100%" xlink:href="#use6213"/><use id="use6217" transform="rotate(12 132.29 164.62)" width="100%" height="100%" xlink:href="#use6215"/><use id="use6219" transform="rotate(6 132.29 164.62)" width="100%" height="100%" xlink:href="#use6217"/><use id="use6221" transform="rotate(6 132.29 164.62)" width="100%" height="100%" xlink:href="#use6219"/><use id="use6223" transform="rotate(6 132.29 164.62)" width="100%" height="100%" xlink:href="#use6221"/><use id="use6225" transform="rotate(12 132.29 164.62)" width="100%" height="100%" xlink:href="#use6223"/><use id="use6227" transform="rotate(6 132.29 164.62)" width="100%" height="100%" xlink:href="#use6225"/><use id="use6229" transform="rotate(6 132.29 164.62)" width="100%" height="100%" xlink:href="#use6227"/><use id="use6231" transform="rotate(6 132.29 164.62)" width="100%" height="100%" xlink:href="#use6229"/><use id="use6233" transform="rotate(12 132.29 164.62)" width="100%" height="100%" xlink:href="#use6231"/><use id="use6235" transform="rotate(6 132.29 164.62)" width="100%" height="100%" xlink:href="#use6233"/><use id="use6237" transform="rotate(6 132.29 164.62)" width="100%" height="100%" xlink:href="#use6235"/><use id="use6239" transform="rotate(6 132.29 164.62)" width="100%" height="100%" xlink:href="#use6237"/><use id="use6241" transform="rotate(12 132.29 164.62)" width="100%" height="100%" xlink:href="#use6239"/><use id="use6243" transform="rotate(6 132.29 164.62)" width="100%" height="100%" xlink:href="#use6241"/><use id="use6245" transform="rotate(6 132.29 164.62)" width="100%" height="100%" xlink:href="#use6243"/><use id="use6247" transform="rotate(6 132.29 164.62)" width="100%" height="100%" xlink:href="#use6245"/><use id="use6249" transform="rotate(12 132.29 164.62)" width="100%" height="100%" xlink:href="#use6247"/><use id="use6251" transform="rotate(6 132.29 164.62)" width="100%" height="100%" xlink:href="#use6249"/><use id="use6253" transform="rotate(6 132.29 164.62)" width="100%" height="100%" xlink:href="#use6251"/><use id="use6255" transform="rotate(6 132.29 164.62)" width="100%" height="100%" xlink:href="#use6253"/><use id="use6257" transform="rotate(12 132.29 164.62)" width="100%" height="100%" xlink:href="#use6255"/><use id="use6259" transform="rotate(6 132.29 164.62)" width="100%" height="100%" xlink:href="#use6257"/><use id="use6261" transform="rotate(6 132.29 164.62)" width="100%" height="100%" xlink:href="#use6259"/><use transform="rotate(6 132.29 164.62)" width="100%" height="100%" xlink:href="#use6261"/><g id="hours" transform="translate(-4.3e-6 -7.5728e-6)"><rect x="127" y="93.271" width="10.583" height="84.667" style="paint-order:stroke fill markers"/><circle cx="132.29" cy="164.71" r="7.7743" style="paint-order:stroke fill markers"/></g><g id="minutes"><rect x="129.65" y="80.042" width="5.2917" height="111.12" style="paint-order:stroke fill markers"/><circle cx="132.29" cy="164.71" r="6.6146" style="paint-order:stroke fill markers"/></g><g id="seconds" fill="#be0000"><rect x="130.97" y="72.104" width="2.6458" height="121.71" style="paint-order:stroke fill markers"/><circle cx="132.29" cy="164.71" r="5.2917" style="paint-order:stroke fill markers"/></g></g></svg>
