<?xml version="1.0" encoding="UTF-8"?>
<svg width="1e3" height="1e3" version="1.1" viewBox="0 0 264.58 264.58" xmlns="http://www.w3.org/2000/svg" xmlns:osb="http://www.openswatchbook.org/uri/2009/osb" xmlns:xlink="http://www.w3.org/1999/xlink"><g transform="translate(0 -32.417)"><circle cx="132.29" cy="164.71" r="125.68" fill="#fff" stroke="#000" stroke-linejoin="round" stroke-width="13.229" style="paint-order:normal"/><rect id="rect4582" x="129.65" y="50.937" width="5.2917" height="18.521" style="paint-order:stroke fill markers"/><use transform="rotate(30 132.29 164.71)" width="100%" height="100%" xlink:href="#rect4582"/><use transform="rotate(60 132.29 164.71)" width="100%" height="100%" xlink:href="#rect4582"/><use transform="rotate(90 132.29 164.71)" width="100%" height="100%" xlink:href="#rect4582"/><use transform="rotate(120 132.29 164.71)" width="100%" height="100%" xlink:href="#rect4582"/><use transform="rotate(150 132.29 164.71)" width="100%" height="100%" xlink:href="#rect4582"/><use transform="rotate(180 132.29 164.71)" width="100%" height="100%" xlink:href="#rect4582"/><use transform="rotate(210 132.29 164.71)" width="100%" height="100%" xlink:href="#rect4582"/><use transform="rotate(240 132.29 164.71)" width="100%" height="100%" xlink:href="#rect4582"/><use transform="rotate(-90 132.29 164.71)" width="100%" height="100%" xlink:href="#rect4582"/><use transform="rotate(-60 132.29 164.71)" width="100%" height="100%" xlink:href="#rect4582"/><use transform="rotate(-30 132.29 164.71)" width="100%" height="100%" xlink:href="#rect4582"/><rect id="rect6169" transform="rotate(6)" x="147.45" y="36.207" width="2.6458" height="9.2604" fill="#9b9b9b" style="paint-order:stroke fill markers"/><use transform="rotate(6 132.29 164.71)" width="100%" height="100%" xlink:href="#rect6169"/><use transform="rotate(12 132.29 164.71)" width="100%" height="100%" xlink:href="#rect6169"/><use transform="rotate(18 132.29 164.71)" width="100%" height="100%" xlink:href="#rect6169"/><use transform="rotate(30 132.29 164.71)" width="100%" height="100%" xlink:href="#rect6169"/><use transform="rotate(36 132.29 164.71)" width="100%" height="100%" xlink:href="#rect6169"/><use transform="rotate(42 132.29 164.71)" width="100%" height="100%" xlink:href="#rect6169"/><use transform="rotate(48 132.29 164.71)" width="100%" height="100%" xlink:href="#rect6169"/><use transform="rotate(60 132.29 164.71)" width="100%" height="100%" xlink:href="#rect6169"/><use transform="rotate(66 132.29 164.71)" width="100%" height="100%" xlink:href="#rect6169"/><use transform="rotate(72 132.29 164.71)" width="100%" height="100%" xlink:href="#rect6169"/><use transform="rotate(78 132.29 164.71)" width="100%" height="100%" xlink:href="#rect6169"/><use transform="rotate(90 132.29 164.71)" width="100%" height="100%" xlink:href="#rect6169"/><use transform="rotate(96 132.29 164.71)" width="100%" height="100%" xlink:href="#rect6169"/><use transform="rotate(102 132.29 164.71)" width="100%" height="100%" xlink:href="#rect6169"/><use transform="rotate(108 132.29 164.71)" width="100%" height="100%" xlink:href="#rect6169"/><use transform="rotate(120 132.29 164.71)" width="100%" height="100%" xlink:href="#rect6169"/><use transform="rotate(126 132.29 164.71)" width="100%" height="100%" xlink:href="#rect6169"/><use transform="rotate(132 132.29 164.71)" width="100%" height="100%" xlink:href="#rect6169"/><use transform="rotate(138 132.29 164.71)" width="100%" height="100%" xlink:href="#rect6169"/><use transform="rotate(150 132.29 164.71)" width="100%" height="100%" xlink:href="#rect6169"/><use transform="rotate(156 132.29 164.71)" width="100%" height="100%" xlink:href="#rect6169"/><use transform="rotate(162 132.29 164.71)" width="100%" height="100%" xlink:href="#rect6169"/><use transform="rotate(168 132.29 164.71)" width="100%" height="100%" xlink:href="#rect6169"/><use transform="rotate(180 132.29 164.71)" width="100%" height="100%" xlink:href="#rect6169"/><use transform="rotate(186 132.29 164.71)" width="100%" height="100%" xlink:href="#rect6169"/><use transform="rotate(192 132.29 164.71)" width="100%" height="100%" xlink:href="#rect6169"/><use transform="rotate(198 132.29 164.71)" width="100%" height="100%" xlink:href="#rect6169"/><use transform="rotate(210 132.29 164.71)" width="100%" height="100%" xlink:href="#rect6169"/><use transform="rotate(216 132.29 164.71)" width="100%" height="100%" xlink:href="#rect6169"/><use transform="rotate(222 132.29 164.71)" width="100%" height="100%" xlink:href="#rect6169"/><use transform="rotate(228 132.29 164.71)" width="100%" height="100%" xlink:href="#rect6169"/><use transform="rotate(240 132.29 164.71)" width="100%" height="100%" xlink:href="#rect6169"/><use transform="rotate(246 132.29 164.71)" width="100%" height="100%" xlink:href="#rect6169"/><use transform="rotate(252 132.29 164.71)" width="100%" height="100%" xlink:href="#rect6169"/><use transform="rotate(258 132.29 164.71)" width="100%" height="100%" xlink:href="#rect6169"/><use transform="rotate(-90 132.29 164.71)" width="100%" height="100%" xlink:href="#rect6169"/><use transform="rotate(-84 132.29 164.71)" width="100%" height="100%" xlink:href="#rect6169"/><use transform="rotate(-78 132.29 164.71)" width="100%" height="100%" xlink:href="#rect6169"/><use transform="rotate(-72 132.29 164.71)" width="100%" height="100%" xlink:href="#rect6169"/><use transform="rotate(-60 132.29 164.71)" width="100%" height="100%" xlink:href="#rect6169"/><use transform="rotate(-54 132.29 164.71)" width="100%" height="100%" xlink:href="#rect6169"/><use transform="rotate(-48 132.29 164.71)" width="100%" height="100%" xlink:href="#rect6169"/><use transform="rotate(-42 132.29 164.71)" width="100%" height="100%" xlink:href="#rect6169"/><use transform="rotate(-30 132.29 164.71)" width="100%" height="100%" xlink:href="#rect6169"/><use transform="rotate(-24 132.29 164.71)" width="100%" height="100%" xlink:href="#rect6169"/><use transform="rotate(-18 132.29 164.71)" width="100%" height="100%" xlink:href="#rect6169"/><use transform="rotate(-12 132.29 164.71)" width="100%" height="100%" xlink:href="#rect6169"/><g id="hours" style="transform-origin:50% 62.2%" data-transform-origin="132.278 164.621"><rect x="127" y="93.271" width="10.583" height="84.667" style="paint-order:stroke fill markers"/><circle cx="132.29" cy="164.71" r="7.7743" style="paint-order:stroke fill markers"/></g><g id="minutes" style="transform-origin:50% 62.2%" data-transform-origin="132.278 164.621"><rect x="129.65" y="80.042" width="5.2917" height="111.12" style="paint-order:stroke fill markers"/><circle cx="132.29" cy="164.71" r="6.6146" style="paint-order:stroke fill markers"/></g><g id="seconds" fill="#be0000" style="transform-origin:50% 62.2%" data-transform-origin="132.278 164.621"><rect x="130.97" y="72.104" width="2.6458" height="121.71" style="paint-order:stroke fill markers"/><circle cx="132.29" cy="164.71" r="5.2917" style="paint-order:stroke fill markers"/></g></g></svg>
